<svg width="599" height="123" viewBox="0 0 599 123" fill="none" xmlns="http://www.w3.org/2000/svg">
<path fill-rule="evenodd" clip-rule="evenodd" d="M589.976 0.889305C589.025 0.63509 588.027 0.5 587 0.5H584.508V3.5H587C587.763 3.5 588.501 3.60028 589.202 3.78755L589.976 0.889305ZM579.523 0.5H574.539V3.5H579.523V0.5ZM569.554 0.5H564.57V3.5H569.554V0.5ZM559.585 0.5H554.601V3.5H559.585V0.5ZM549.616 0.5H544.631V3.5H549.616V0.5ZM539.647 0.5H534.662V3.5H539.647V0.5ZM529.678 0.5H524.693V3.5H529.678V0.5ZM519.709 0.5H514.724V3.5H519.709V0.5ZM509.74 0.5H504.755V3.5H509.74V0.5ZM499.771 0.5H494.786V3.5H499.771V0.5ZM489.802 0.5H484.817V3.5H489.802V0.5ZM479.833 0.5H474.848V3.5H479.833V0.5ZM469.864 0.5H464.879V3.5H469.864V0.5ZM459.894 0.5H454.91V3.5H459.894V0.5ZM449.925 0.5H444.941V3.5H449.925V0.5ZM439.956 0.5H434.972V3.5H439.956V0.5ZM429.987 0.5H425.003V3.5H429.987V0.5ZM420.018 0.5H415.034V3.5H420.018V0.5ZM410.049 0.5H405.065V3.5H410.049V0.5ZM400.08 0.5H395.096V3.5H400.08V0.5ZM390.111 0.5H385.126V3.5H390.111V0.5ZM380.142 0.5H375.157V3.5H380.142V0.5ZM370.173 0.5H365.188V3.5H370.173V0.5ZM360.204 0.5H357.712V3.5H360.204V0.5ZM355.207 0.5H350.196V3.5H355.207V0.5ZM345.186 0.5H340.176V3.5H345.186V0.5ZM335.165 0.5H330.155V3.5H335.165V0.5ZM325.145 0.5H320.134V3.5H325.145V0.5ZM315.124 0.5H310.114V3.5H315.124V0.5ZM305.103 0.5H300.093V3.5H305.103V0.5ZM295.083 0.5H290.072V3.5H295.083V0.5ZM285.062 0.5H280.052V3.5H285.062V0.5ZM275.041 0.5H270.031V3.5H275.041V0.5ZM265.021 0.5H260.011V3.5H265.021V0.5ZM255 0.5H249.99V3.5H255V0.5ZM244.98 0.5H239.969V3.5H244.98V0.5ZM234.959 0.5H229.949V3.5H234.959V0.5ZM224.938 0.5H219.928V3.5H224.938V0.5ZM214.918 0.5H209.907V3.5H214.918V0.5ZM204.897 0.5H199.887V3.5H204.897V0.5ZM194.876 0.5H189.866V3.5H194.876V0.5ZM184.856 0.5H179.846V3.5H184.856V0.5ZM174.835 0.5H169.825V3.5H174.835V0.5ZM164.815 0.5H159.804V3.5H164.815V0.5ZM154.794 0.5H149.784V3.5H154.794V0.5ZM144.773 0.5H139.763V3.5H144.773V0.5ZM134.753 0.5H129.742V3.5H134.753V0.5ZM124.732 0.5H119.722V3.5H124.732V0.5ZM114.711 0.5H109.701V3.5H114.711V0.5ZM104.691 0.5H99.6805V3.5H104.691V0.5ZM94.6701 0.5H89.6598V3.5H94.6701V0.5ZM84.6495 0.5H79.6392V3.5H84.6495V0.5ZM74.6289 0.5H69.6186V3.5H74.6289V0.5ZM64.6083 0.5H59.598V3.5H64.6083V0.5ZM54.5876 0.5H49.5773V3.5H54.5876V0.5ZM44.567 0.5H39.5567V3.5H44.567V0.5ZM34.5464 0.5H29.5361V3.5H34.5464V0.5ZM24.5258 0.5H19.5154V3.5H24.5258V0.5ZM14.5051 0.5H12V3.5H14.5051V0.5ZM9.0235 0.889305C7.04169 1.41905 5.27295 2.46357 3.86829 3.86827L5.98956 5.98959C7.03058 4.94858 8.33807 4.17786 9.79822 3.78755L9.0235 0.889305ZM598.111 9.02351C597.581 7.04171 596.536 5.27298 595.132 3.86827L593.01 5.98959C594.051 7.03061 594.822 8.33807 595.212 9.79823L598.111 9.02351ZM0.889282 9.02351C0.635071 9.97454 0.5 10.9726 0.5 12V14.475H3.5V12C3.5 11.2365 3.60028 10.4988 3.78754 9.79823L0.889282 9.02351ZM598.5 14.475V12H595.5V14.475H598.5ZM598.5 24.375V19.425H595.5V24.375H598.5ZM0.5 19.425V24.375H3.5V19.425H0.5ZM598.5 34.275V29.325H595.5V34.275H598.5ZM0.5 29.325V34.275H3.5V29.325H0.5ZM0.5 39.225V44.175H3.5V39.225H0.5ZM598.5 44.175V39.225H595.5V44.175H598.5ZM0.5 49.125V54.075H3.5V49.125H0.5ZM598.5 54.075V49.125H595.5V54.075H598.5ZM0.5 59.025V63.975H3.5V59.025H0.5ZM598.5 63.975V59.025H595.5V63.975H598.5ZM0.5 68.925V73.875H3.5V68.925H0.5ZM598.5 73.875V68.925H595.5V73.875H598.5ZM0.5 78.825V83.775H3.5V78.825H0.5ZM598.5 83.775V78.825H595.5V83.775H598.5ZM598.5 93.675V88.725H595.5V93.675H598.5ZM0.5 88.725V93.675H3.5V88.725H0.5ZM598.5 103.575V98.625H595.5V103.575H598.5ZM0.5 98.625V103.575H3.5V98.625H0.5ZM598.5 111V108.525H595.5V111C595.5 111.763 595.4 112.501 595.212 113.202L598.111 113.976C598.365 113.025 598.5 112.027 598.5 111ZM0.5 108.525V111H3.5V108.525H0.5ZM0.889282 113.976C1.41907 115.958 2.46356 117.727 3.86829 119.132L5.98956 117.01C4.94855 115.969 4.17786 114.662 3.78754 113.202L0.889282 113.976ZM589.976 122.111C591.958 121.581 593.727 120.536 595.132 119.132L593.01 117.01C591.969 118.051 590.662 118.822 589.202 119.212L589.976 122.111ZM9.0235 122.111C9.97455 122.365 10.9727 122.5 12 122.5V119.5C11.2366 119.5 10.4988 119.4 9.79822 119.212L9.0235 122.111ZM584.5 122.5H587V119.5H584.5V122.5ZM574.5 122.5H579.5V119.5H574.5V122.5ZM564.5 122.5H569.5V119.5H564.5V122.5ZM554.5 122.5H559.5V119.5H554.5V122.5ZM544.5 122.5H549.5V119.5H544.5V122.5ZM534.5 122.5H539.5V119.5H534.5V122.5ZM524.5 122.5H529.5V119.5H524.5V122.5ZM514.5 122.5H519.5V119.5H514.5V122.5ZM504.5 122.5H509.5V119.5H504.5V122.5ZM494.5 122.5H499.5V119.5H494.5V122.5ZM484.5 122.5H489.5V119.5H484.5V122.5ZM474.5 122.5H479.5V119.5H474.5V122.5ZM464.5 122.5H469.5V119.5H464.5V122.5ZM454.5 122.5H459.5V119.5H454.5V122.5ZM444.5 122.5H449.5V119.5H444.5V122.5ZM434.5 122.5H439.5V119.5H434.5V122.5ZM424.5 122.5H429.5V119.5H424.5V122.5ZM414.5 122.5H419.5V119.5H414.5V122.5ZM404.5 122.5H409.5V119.5H404.5V122.5ZM394.5 122.5H399.5V119.5H394.5V122.5ZM384.5 122.5H389.5V119.5H384.5V122.5ZM374.5 122.5H379.5V119.5H374.5V122.5ZM364.5 122.5H369.5V119.5H364.5V122.5ZM354.5 122.5H359.5V119.5H354.5V122.5ZM344.5 122.5H349.5V119.5H344.5V122.5ZM334.5 122.5H339.5V119.5H334.5V122.5ZM324.5 122.5H329.5V119.5H324.5V122.5ZM314.5 122.5H319.5V119.5H314.5V122.5ZM304.5 122.5H309.5V119.5H304.5V122.5ZM294.5 122.5H299.5V119.5H294.5V122.5ZM284.5 122.5H289.5V119.5H284.5V122.5ZM274.5 122.5H279.5V119.5H274.5V122.5ZM264.5 122.5H269.5V119.5H264.5V122.5ZM254.5 122.5H259.5V119.5H254.5V122.5ZM244.5 122.5H249.5V119.5H244.5V122.5ZM234.5 122.5H239.5V119.5H234.5V122.5ZM224.5 122.5H229.5V119.5H224.5V122.5ZM214.5 122.5H219.5V119.5H214.5V122.5ZM204.5 122.5H209.5V119.5H204.5V122.5ZM194.5 122.5H199.5V119.5H194.5V122.5ZM184.5 122.5H189.5V119.5H184.5V122.5ZM174.5 122.5H179.5V119.5H174.5V122.5ZM164.5 122.5H169.5V119.5H164.5V122.5ZM154.5 122.5H159.5V119.5H154.5V122.5ZM144.5 122.5H149.5V119.5H144.5V122.5ZM134.5 122.5H139.5V119.5H134.5V122.5ZM124.5 122.5H129.5V119.5H124.5V122.5ZM114.5 122.5H119.5V119.5H114.5V122.5ZM104.5 122.5H109.5V119.5H104.5V122.5ZM94.5 122.5H99.5V119.5H94.5V122.5ZM84.5 122.5H89.5V119.5H84.5V122.5ZM74.5 122.5H79.5V119.5H74.5V122.5ZM64.5 122.5H69.5V119.5H64.5V122.5ZM54.5 122.5H59.5V119.5H54.5V122.5ZM44.5 122.5H49.5V119.5H44.5V122.5ZM34.5 122.5H39.5V119.5H34.5V122.5ZM24.5 122.5H29.5V119.5H24.5V122.5ZM14.5 122.5H19.5V119.5H14.5V122.5Z" fill="#FF5931"/>
</svg>
