<svg width="438" height="123" viewBox="0 0 438 123" fill="none" xmlns="http://www.w3.org/2000/svg">
<path fill-rule="evenodd" clip-rule="evenodd" d="M9.02351 0.889305C9.97454 0.63509 10.9726 0.5 12 0.5V3.5C11.2365 3.5 10.4988 3.60028 9.79823 3.78755L9.02351 0.889305ZM14.4931 0.5H19.4791V3.5H14.4931V0.5ZM24.4652 0.5H29.4512V3.5H24.4652V0.5ZM34.4373 0.5H39.4233V3.5H34.4373V0.5ZM44.4094 0.5H49.3954V3.5H44.4094V0.5ZM54.3815 0.5H59.3675V3.5H54.3815V0.5ZM64.3536 0.5H69.3397V3.5H64.3536V0.5ZM74.3257 0.5H79.3118V3.5H74.3257V0.5ZM84.2978 0.5H89.2839V3.5H84.2978V0.5ZM94.2699 0.5H99.256V3.5H94.2699V0.5ZM104.242 0.5H109.228V3.5H104.242V0.5ZM114.214 0.5H119.2V3.5H114.214V0.5ZM124.186 0.5H129.172V3.5H124.186V0.5ZM134.158 0.5H139.144V3.5H134.158V0.5ZM144.13 0.5H149.117V3.5H144.13V0.5ZM154.103 0.5H159.089V3.5H154.103V0.5ZM164.075 0.5H169.061V3.5H164.075V0.5ZM174.047 0.5H179.035V3.5H174.047V0.5ZM184.024 0.5H189.013V3.5H184.024V0.5ZM194.002 0.5H198.991V3.5H194.002V0.5ZM203.981 0.5H208.97V3.5H203.981V0.5ZM213.959 0.5H218.948V3.5H213.959V0.5ZM223.937 0.5H228.927V3.5H223.937V0.5ZM233.916 0.5H238.905V3.5H233.916V0.5ZM243.894 0.5H248.883V3.5H243.894V0.5ZM253.873 0.5H258.862V3.5H253.873V0.5ZM263.851 0.5H268.84V3.5H263.851V0.5ZM273.829 0.5H278.819V3.5H273.829V0.5ZM283.808 0.5H288.797V3.5H283.808V0.5ZM293.786 0.5H298.775V3.5H293.786V0.5ZM303.764 0.5H308.754V3.5H303.764V0.5ZM313.743 0.5H318.732V3.5H313.743V0.5ZM323.721 0.5H328.711V3.5H323.721V0.5ZM333.7 0.5H338.689V3.5H333.7V0.5ZM343.678 0.5H348.667V3.5H343.678V0.5ZM353.657 0.5H358.646V3.5H353.657V0.5ZM363.635 0.5H368.624V3.5H363.635V0.5ZM373.613 0.5H378.603V3.5H373.613V0.5ZM383.592 0.5H388.581V3.5H383.592V0.5ZM393.57 0.5H398.559V3.5H393.57V0.5ZM403.549 0.5H408.538V3.5H403.549V0.5ZM413.527 0.5H418.516V3.5H413.527V0.5ZM423.505 0.5H426V3.5H423.505V0.5ZM428.976 0.889304C430.958 1.41905 432.727 2.46357 434.132 3.86827L432.01 5.98959C430.969 4.94858 429.662 4.17786 428.202 3.78755L428.976 0.889304ZM0.889304 9.02351C1.41905 7.04171 2.46357 5.27298 3.86827 3.86827L5.98959 5.98959C4.94858 7.03061 4.17786 8.33807 3.78755 9.79823L0.889304 9.02351ZM437.111 9.02351C437.365 9.97454 437.5 10.9726 437.5 12V14.475H434.5V12C434.5 11.2365 434.4 10.4988 434.212 9.79823L437.111 9.02351ZM0.5 14.475V12H3.5V14.475H0.5ZM0.5 24.375V19.425H3.5V24.375H0.5ZM437.5 19.425V24.375H434.5V19.425H437.5ZM0.5 34.275V29.325H3.5V34.275H0.5ZM437.5 29.325V34.275H434.5V29.325H437.5ZM437.5 39.225V44.175H434.5V39.225H437.5ZM0.5 44.175V39.225H3.5V44.175H0.5ZM437.5 49.125V54.075H434.5V49.125H437.5ZM0.5 54.075V49.125H3.5V54.075H0.5ZM437.5 59.025V63.975H434.5V59.025H437.5ZM0.5 63.975V59.025H3.5V63.975H0.5ZM437.5 68.925V73.875H434.5V68.925H437.5ZM0.5 73.875V68.925H3.5V73.875H0.5ZM437.5 78.825V83.775H434.5V78.825H437.5ZM0.5 83.775V78.825H3.5V83.775H0.5ZM0.5 93.675V88.725H3.5V93.675H0.5ZM437.5 88.725V93.675H434.5V88.725H437.5ZM0.5 103.575V98.625H3.5V103.575H0.5ZM437.5 98.625V103.575H434.5V98.625H437.5ZM0.5 111V108.525H3.5V111C3.5 111.763 3.60028 112.501 3.78755 113.202L0.889305 113.976C0.63509 113.025 0.5 112.027 0.5 111ZM437.5 108.525V111H434.5V108.525H437.5ZM437.111 113.976C436.581 115.958 435.536 117.727 434.132 119.132L432.01 117.01C433.051 115.969 433.822 114.662 434.212 113.202L437.111 113.976ZM9.02352 122.111C7.04171 121.581 5.27298 120.536 3.86827 119.132L5.98959 117.01C7.03061 118.051 8.33807 118.822 9.79823 119.212L9.02352 122.111ZM428.976 122.111C428.025 122.365 427.027 122.5 426 122.5V119.5C426.763 119.5 427.501 119.4 428.202 119.212L428.976 122.111ZM14.494 122.5H12V119.5H14.494V122.5ZM24.4699 122.5H19.4819V119.5H24.4699V122.5ZM34.4458 122.5H29.4578V119.5H34.4458V122.5ZM44.4217 122.5H39.4337V119.5H44.4217V122.5ZM54.3976 122.5H49.4096V119.5H54.3976V122.5ZM64.3735 122.5H59.3855V119.5H64.3735V122.5ZM74.3494 122.5H69.3615V119.5H74.3494V122.5ZM84.3253 122.5H79.3374V119.5H84.3253V122.5ZM94.3012 122.5H89.3133V119.5H94.3012V122.5ZM104.277 122.5H99.2892V119.5H104.277V122.5ZM114.253 122.5H109.265V119.5H114.253V122.5ZM124.229 122.5H119.241V119.5H124.229V122.5ZM134.205 122.5H129.217V119.5H134.205V122.5ZM144.181 122.5H139.193V119.5H144.181V122.5ZM154.157 122.5H149.169V119.5H154.157V122.5ZM164.133 122.5H159.145V119.5H164.133V122.5ZM174.108 122.5H169.12V119.5H174.108V122.5ZM184.084 122.5H179.096V119.5H184.084V122.5ZM194.06 122.5H189.072V119.5H194.06V122.5ZM204.036 122.5H199.048V119.5H204.036V122.5ZM214.012 122.5H209.024V119.5H214.012V122.5ZM223.988 122.5H219V119.5H223.988V122.5ZM233.964 122.5H228.976V119.5H233.964V122.5ZM243.94 122.5H238.952V119.5H243.94V122.5ZM253.916 122.5H248.928V119.5H253.916V122.5ZM263.891 122.5H258.903V119.5H263.891V122.5ZM273.867 122.5H268.879V119.5H273.867V122.5ZM283.843 122.5H278.855V119.5H283.843V122.5ZM293.819 122.5H288.831V119.5H293.819V122.5ZM303.795 122.5H298.807V119.5H303.795V122.5ZM313.771 122.5H308.783V119.5H313.771V122.5ZM323.747 122.5H318.759V119.5H323.747V122.5ZM333.723 122.5H328.735V119.5H333.723V122.5ZM343.699 122.5H338.711V119.5H343.699V122.5ZM353.674 122.5H348.687V119.5H353.674V122.5ZM363.65 122.5H358.662V119.5H363.65V122.5ZM373.626 122.5H368.638V119.5H373.626V122.5ZM383.602 122.5H378.614V119.5H383.602V122.5ZM393.578 122.5H388.59V119.5H393.578V122.5ZM403.554 122.5H398.566V119.5H403.554V122.5ZM413.53 122.5H408.542V119.5H413.53V122.5ZM423.506 122.5H418.518V119.5H423.506V122.5Z" fill="#E3223B"/>
</svg>
