<svg width="491" height="123" viewBox="0 0 491 123" fill="none" xmlns="http://www.w3.org/2000/svg">
<path fill-rule="evenodd" clip-rule="evenodd" d="M9.02351 0.889305C9.97454 0.63509 10.9726 0.5 12 0.5V3.5C11.2365 3.5 10.4988 3.60028 9.79823 3.78755L9.02351 0.889305ZM14.5115 0.5H19.5346V3.5H14.5115V0.5ZM24.5577 0.5H29.5808V3.5H24.5577V0.5ZM34.6039 0.5H39.627V3.5H34.6039V0.5ZM44.6501 0.5H49.6732V3.5H44.6501V0.5ZM54.6963 0.5H59.7195V3.5H54.6963V0.5ZM64.7425 0.5H69.7657V3.5H64.7425V0.5ZM74.7888 0.5H79.8119V3.5H74.7888V0.5ZM84.8349 0.5H89.858V3.5H84.8349V0.5ZM94.8811 0.5H99.9042V3.5H94.8811V0.5ZM104.927 0.5H109.95V3.5H104.927V0.5ZM114.974 0.5H119.997V3.5H114.974V0.5ZM125.02 0.5H130.043V3.5H125.02V0.5ZM135.066 0.5H140.089V3.5H135.066V0.5ZM145.112 0.5H150.135V3.5H145.112V0.5ZM155.158 0.5H160.181V3.5H155.158V0.5ZM165.204 0.5H170.228V3.5H165.204V0.5ZM175.251 0.5H180.274V3.5H175.251V0.5ZM185.297 0.5H190.32V3.5H185.297V0.5ZM195.343 0.5H200.365V3.5H195.343V0.5ZM205.385 0.5H210.406V3.5H205.385V0.5ZM215.426 0.5H220.447V3.5H215.426V0.5ZM225.467 0.5H230.488V3.5H225.467V0.5ZM235.508 0.5H240.529V3.5H235.508V0.5ZM245.549 0.5H250.57V3.5H245.549V0.5ZM255.59 0.5H260.61V3.5H255.59V0.5ZM265.631 0.5H270.651V3.5H265.631V0.5ZM275.672 0.5H280.692V3.5H275.672V0.5ZM285.713 0.5H290.733V3.5H285.713V0.5ZM295.754 0.5H300.774V3.5H295.754V0.5ZM305.794 0.5H310.815V3.5H305.794V0.5ZM315.835 0.5H320.856V3.5H315.835V0.5ZM325.876 0.5H330.897V3.5H325.876V0.5ZM335.917 0.5H340.938V3.5H335.917V0.5ZM345.958 0.5H350.978V3.5H345.958V0.5ZM355.999 0.5H361.019V3.5H355.999V0.5ZM366.04 0.5H371.06V3.5H366.04V0.5ZM376.081 0.5H381.101V3.5H376.081V0.5ZM386.122 0.5H391.142V3.5H386.122V0.5ZM396.163 0.5H401.183V3.5H396.163V0.5ZM406.203 0.5H411.224V3.5H406.203V0.5ZM416.244 0.5H421.265V3.5H416.244V0.5ZM426.285 0.5H431.306V3.5H426.285V0.5ZM436.326 0.5H441.347V3.5H436.326V0.5ZM446.367 0.5H451.388V3.5H446.367V0.5ZM456.408 0.5H461.428V3.5H456.408V0.5ZM466.449 0.5H471.469V3.5H466.449V0.5ZM476.49 0.5H479V3.5H476.49V0.5ZM481.977 0.889304C483.958 1.41905 485.727 2.46357 487.132 3.86827L485.01 5.98959C483.969 4.94858 482.662 4.17786 481.202 3.78755L481.977 0.889304ZM0.889304 9.02351C1.41905 7.04171 2.46357 5.27298 3.86827 3.86827L5.98959 5.98959C4.94858 7.03061 4.17786 8.33807 3.78755 9.79823L0.889304 9.02351ZM490.111 9.02351C490.365 9.97454 490.5 10.9726 490.5 12V14.475H487.5V12C487.5 11.2365 487.4 10.4988 487.212 9.79823L490.111 9.02351ZM0.5 14.475V12H3.5V14.475H0.5ZM0.5 24.375V19.425H3.5V24.375H0.5ZM490.5 19.425V24.375H487.5V19.425H490.5ZM0.5 34.275V29.325H3.5V34.275H0.5ZM490.5 29.325V34.275H487.5V29.325H490.5ZM490.5 39.225V44.175H487.5V39.225H490.5ZM0.5 44.175V39.225H3.5V44.175H0.5ZM490.5 49.125V54.075H487.5V49.125H490.5ZM0.5 54.075V49.125H3.5V54.075H0.5ZM490.5 59.025V63.975H487.5V59.025H490.5ZM0.5 63.975V59.025H3.5V63.975H0.5ZM490.5 68.925V73.875H487.5V68.925H490.5ZM0.5 73.875V68.925H3.5V73.875H0.5ZM490.5 78.825V83.775H487.5V78.825H490.5ZM0.5 83.775V78.825H3.5V83.775H0.5ZM0.5 93.675V88.725H3.5V93.675H0.5ZM490.5 88.725V93.675H487.5V88.725H490.5ZM0.5 103.575V98.625H3.5V103.575H0.5ZM490.5 98.625V103.575H487.5V98.625H490.5ZM0.5 111V108.525H3.5V111C3.5 111.763 3.60028 112.501 3.78755 113.202L0.889304 113.976C0.63509 113.025 0.5 112.027 0.5 111ZM490.5 108.525V111H487.5V108.525H490.5ZM490.111 113.976C489.581 115.958 488.536 117.727 487.132 119.132L485.01 117.01C486.051 115.969 486.822 114.662 487.212 113.202L490.111 113.976ZM9.0235 122.111C7.0417 121.581 5.27297 120.536 3.86827 119.132L5.98959 117.01C7.0306 118.051 8.33806 118.822 9.79822 119.212L9.0235 122.111ZM481.977 122.111C481.025 122.365 480.027 122.5 479 122.5V119.5C479.763 119.5 480.501 119.4 481.202 119.212L481.977 122.111ZM14.5107 122.5H12V119.5H14.5107V122.5ZM24.5538 122.5H19.5322V119.5H24.5538V122.5ZM34.5968 122.5H29.5753V119.5H34.5968V122.5ZM44.6398 122.5H39.6183V119.5H44.6398V122.5ZM54.6828 122.5H49.6613V119.5H54.6828V122.5ZM64.7258 122.5H59.7043V119.5H64.7258V122.5ZM74.7688 122.5H69.7473V119.5H74.7688V122.5ZM84.8118 122.5H79.7903V119.5H84.8118V122.5ZM94.8548 122.5H89.8333V119.5H94.8548V122.5ZM104.898 122.5H99.8764V119.5H104.898V122.5ZM114.941 122.5H109.919V119.5H114.941V122.5ZM124.984 122.5H119.962V119.5H124.984V122.5ZM135.027 122.5H130.005V119.5H135.027V122.5ZM145.07 122.5H140.048V119.5H145.07V122.5ZM155.113 122.5H150.091V119.5H155.113V122.5ZM165.156 122.5H160.134V119.5H165.156V122.5ZM175.199 122.5H170.177V119.5H175.199V122.5ZM185.242 122.5H180.22V119.5H185.242V122.5ZM195.285 122.5H190.263V119.5H195.285V122.5ZM205.328 122.5H200.306V119.5H205.328V122.5ZM215.371 122.5H210.349V119.5H215.371V122.5ZM225.414 122.5H220.392V119.5H225.414V122.5ZM235.457 122.5H230.435V119.5H235.457V122.5ZM245.5 122.5H240.478V119.5H245.5V122.5ZM255.543 122.5H250.521V119.5H255.543V122.5ZM265.586 122.5H260.564V119.5H265.586V122.5ZM275.629 122.5H270.607V119.5H275.629V122.5ZM285.672 122.5H280.65V119.5H285.672V122.5ZM295.715 122.5H290.693V119.5H295.715V122.5ZM305.758 122.5H300.736V119.5H305.758V122.5ZM315.801 122.5H310.78V119.5H315.801V122.5ZM325.844 122.5H320.823V119.5H325.844V122.5ZM335.887 122.5H330.866V119.5H335.887V122.5ZM345.93 122.5H340.909V119.5H345.93V122.5ZM355.973 122.5H350.952V119.5H355.973V122.5ZM366.016 122.5H360.995V119.5H366.016V122.5ZM376.059 122.5H371.038V119.5H376.059V122.5ZM386.102 122.5H381.081V119.5H386.102V122.5ZM396.145 122.5H391.124V119.5H396.145V122.5ZM406.188 122.5H401.167V119.5H406.188V122.5ZM416.231 122.5H411.21V119.5H416.231V122.5ZM426.274 122.5H421.253V119.5H426.274V122.5ZM436.317 122.5H431.296V119.5H436.317V122.5ZM446.36 122.5H441.339V119.5H446.36V122.5ZM456.403 122.5H451.382V119.5H456.403V122.5ZM466.447 122.5H461.425V119.5H466.447V122.5ZM476.49 122.5H471.468V119.5H476.49V122.5Z" fill="#0583F2"/>
</svg>
