<svg width="651" height="356" viewBox="0 0 651 356" fill="none" xmlns="http://www.w3.org/2000/svg">
<path fill-rule="evenodd" clip-rule="evenodd" d="M269.273 0.389305C270.225 0.13509 271.223 0 272.25 0V3C271.487 3 270.749 3.10028 270.048 3.28755L269.273 0.389305ZM274.76 0H279.781V3H274.76V0ZM284.801 0H289.822V3H284.801V0ZM294.843 0H299.863V3H294.843V0ZM304.884 0H309.904V3H304.884V0ZM314.925 0H319.945V3H314.925V0ZM324.966 0H329.986V3H324.966V0ZM335.007 0H340.027V3H335.007V0ZM345.048 0H350.068V3H345.048V0ZM355.089 0H360.11V3H355.089V0ZM365.13 0H370.151V3H365.13V0ZM375.171 0H380.192V3H375.171V0ZM385.212 0H390.233V3H385.212V0ZM395.253 0H400.274V3H395.253V0ZM405.294 0H410.315V3H405.294V0ZM415.336 0H420.356V3H415.336V0ZM425.377 0H430.397V3H425.377V0ZM435.418 0H440.438V3H435.418V0ZM445.459 0H450.479V3H445.459V0ZM455.5 0H460.521V3H455.5V0ZM465.541 0H470.562V3H465.541V0ZM475.582 0H480.603V3H475.582V0ZM485.623 0H490.644V3H485.623V0ZM495.664 0H500.685V3H495.664V0ZM505.706 0H510.726V3H505.706V0ZM515.747 0H520.767V3H515.747V0ZM525.788 0H530.808V3H525.788V0ZM535.829 0H540.849V3H535.829V0ZM545.87 0H550.89V3H545.87V0ZM555.911 0H560.932V3H555.911V0ZM565.952 0H570.973V3H565.952V0ZM575.993 0H581.014V3H575.993V0ZM586.034 0H591.055V3H586.034V0ZM596.075 0H601.096V3H596.075V0ZM606.116 0H611.137V3H606.116V0ZM616.158 0H621.178V3H616.158V0ZM626.199 0H631.219V3H626.199V0ZM636.24 0H638.75V3H636.24V0ZM641.727 0.389305C643.708 0.919052 645.477 1.96357 646.882 3.36827L644.76 5.48959C643.719 4.44858 642.412 3.67786 640.952 3.28755L641.727 0.389305ZM261.139 8.52351C261.669 6.54171 262.714 4.77298 264.118 3.36827L266.24 5.48959C265.199 6.53061 264.428 7.83807 264.038 9.29823L261.139 8.52351ZM649.861 8.52351C650.115 9.47454 650.25 10.4726 650.25 11.5H647.25C647.25 10.7365 647.15 9.99882 646.962 9.29823L649.861 8.52351ZM260.75 13.9679V11.5H263.75V13.9679H260.75ZM650.25 13.9849V18.9551H647.25V13.9849H650.25ZM260.75 23.8397V18.9038H263.75V23.8397H260.75ZM650.25 23.9252V28.8954H647.25V23.9252H650.25ZM260.75 33.7115V28.7756H263.75V33.7115H260.75ZM650.25 33.8655V38.8357H647.25V33.8655H650.25ZM260.75 43.5833V38.6474H263.75V43.5833H260.75ZM650.25 43.8058V48.776H647.25V43.8058H650.25ZM260.75 53.4551V48.5192H263.75V53.4551H260.75ZM650.25 53.7462V58.7163H647.25V53.7462H650.25ZM260.75 63.3269V58.391H263.75V63.3269H260.75ZM650.25 63.6865V68.6566H647.25V63.6865H650.25ZM260.75 73.1987V68.2628H263.75V73.1987H260.75ZM650.25 73.6268V78.5969H647.25V73.6268H650.25ZM260.75 83.0705V78.1346H263.75V83.0705H260.75ZM650.25 83.5671V88.5372H647.25V83.5671H650.25ZM260.75 92.9423V88.0064H263.75V92.9423H260.75ZM650.25 93.5074V98.4775H647.25V93.5074H650.25ZM260.75 102.814V97.8782H263.75V102.814H260.75ZM650.25 103.448V108.418H647.25V103.448H650.25ZM260.75 112.686V107.75H263.75V112.686H260.75ZM650.25 113.388V118.358H647.25V113.388H650.25ZM260.75 122.558V117.622H263.75V122.558H260.75ZM650.25 123.328V128.298H647.25V123.328H650.25ZM260.75 132.429V127.494H263.75V132.429H260.75ZM650.25 133.269V138.239H647.25V133.269H650.25ZM260.75 142.301V137.365H263.75V142.301H260.75ZM650.25 143.209V148.179H647.25V143.209H650.25ZM260.75 152.173V147.237H263.75V152.173H260.75ZM650.25 153.149V158.119H647.25V153.149H650.25ZM260.75 162.045V157.109H263.75V162.045H260.75ZM650.25 163.09V168.06H647.25V163.09H650.25ZM260.75 171.917V166.981H263.75V171.917H260.75ZM650.25 173.03V178H647.25V173.03H650.25ZM260.75 181.788V176.853H263.75V181.788H260.75ZM650.25 182.97V187.94H647.25V182.97H650.25ZM260.75 191.66V186.724H263.75V191.66H260.75ZM650.25 192.91V197.881H647.25V192.91H650.25ZM260.75 201.532V196.596H263.75V201.532H260.75ZM650.25 202.851V207.821H647.25V202.851H650.25ZM260.462 206.202C260.65 205.501 260.75 204.763 260.75 204H263.75C263.75 205.027 263.615 206.025 263.361 206.976L260.462 206.202ZM254.452 212.212C255.912 211.822 257.219 211.051 258.26 210.01L260.382 212.132C258.977 213.536 257.208 214.581 255.226 215.111L254.452 212.212ZM9.27351 212.889C10.2245 212.635 11.2226 212.5 12.25 212.5H14.75V215.5H12.25C11.4865 215.5 10.7488 215.6 10.0482 215.788L9.27351 212.889ZM19.75 212.5H24.75V215.5H19.75V212.5ZM29.75 212.5H34.75V215.5H29.75V212.5ZM39.75 212.5H44.75V215.5H39.75V212.5ZM49.75 212.5H54.75V215.5H49.75V212.5ZM59.75 212.5H64.75V215.5H59.75V212.5ZM69.75 212.5H74.75V215.5H69.75V212.5ZM79.75 212.5H84.75V215.5H79.75V212.5ZM89.75 212.5H94.75V215.5H89.75V212.5ZM99.75 212.5H104.75V215.5H99.75V212.5ZM109.75 212.5H114.75V215.5H109.75V212.5ZM119.75 212.5H124.75V215.5H119.75V212.5ZM129.75 212.5H134.75V215.5H129.75V212.5ZM139.75 212.5H144.75V215.5H139.75V212.5ZM149.75 212.5H154.75V215.5H149.75V212.5ZM159.75 212.5H164.75V215.5H159.75V212.5ZM169.75 212.5H174.75V215.5H169.75V212.5ZM179.75 212.5H184.75V215.5H179.75V212.5ZM189.75 212.5H194.75V215.5H189.75V212.5ZM199.75 212.5H204.75V215.5H199.75V212.5ZM209.75 212.5H214.75V215.5H209.75V212.5ZM219.75 212.5H224.75V215.5H219.75V212.5ZM229.75 212.5H234.75V215.5H229.75V212.5ZM239.75 212.5H244.75V215.5H239.75V212.5ZM249.75 212.5H252.25V215.5H249.75V212.5ZM650.25 212.791V217.761H647.25V212.791H650.25ZM1.1393 221.024C1.66905 219.042 2.71357 217.273 4.11827 215.868L6.23959 217.99C5.19858 219.031 4.42786 220.338 4.03755 221.798L1.1393 221.024ZM650.25 222.731V227.702H647.25V222.731H650.25ZM0.75 226.51V224H3.75V226.51H0.75ZM0.75 236.552V231.531H3.75V236.552H0.75ZM650.25 232.672V237.642H647.25V232.672H650.25ZM0.75 246.594V241.573H3.75V246.594H0.75ZM650.25 242.612V247.582H647.25V242.612H650.25ZM0.75 256.635V251.615H3.75V256.635H0.75ZM650.25 252.552V257.522H647.25V252.552H650.25ZM0.75 266.677V261.656H3.75V266.677H0.75ZM650.25 262.493V267.463H647.25V262.493H650.25ZM0.75 276.719V271.698H3.75V276.719H0.75ZM650.25 272.433V277.403H647.25V272.433H650.25ZM0.75 286.76V281.74H3.75V286.76H0.75ZM650.25 282.373V287.343H647.25V282.373H650.25ZM0.75 296.802V291.781H3.75V296.802H0.75ZM650.25 292.313V297.284H647.25V292.313H650.25ZM0.75 306.844V301.823H3.75V306.844H0.75ZM650.25 302.254V307.224H647.25V302.254H650.25ZM0.75 316.885V311.865H3.75V316.885H0.75ZM650.25 312.194V317.164H647.25V312.194H650.25ZM0.75 326.927V321.906H3.75V326.927H0.75ZM650.25 322.134V327.104H647.25V322.134H650.25ZM0.75 336.969V331.948H3.75V336.969H0.75ZM650.25 332.075V337.045H647.25V332.075H650.25ZM0.75 344.5V341.99H3.75V344.5C3.75 345.263 3.85028 346.001 4.03755 346.702L1.1393 347.477C0.885089 346.525 0.75 345.527 0.75 344.5ZM650.25 342.015V344.5H647.25V342.015H650.25ZM649.861 347.477C649.331 349.458 648.286 351.227 646.882 352.632L644.76 350.51C645.801 349.469 646.572 348.162 646.962 346.702L649.861 347.477ZM9.2735 355.611C7.29169 355.081 5.52296 354.036 4.11826 352.632L6.23958 350.51C7.2806 351.551 8.58806 352.322 10.0482 352.712L9.2735 355.611ZM641.727 355.611C640.775 355.865 639.777 356 638.75 356V353C639.513 353 640.251 352.9 640.952 352.712L641.727 355.611ZM14.756 356H12.25V353H14.756V356ZM24.78 356H19.768V353H24.78V356ZM34.804 356H29.792V353H34.804V356ZM44.828 356H39.816V353H44.828V356ZM54.852 356H49.84V353H54.852V356ZM64.876 356H59.864V353H64.876V356ZM74.9 356H69.888V353H74.9V356ZM84.924 356H79.912V353H84.924V356ZM94.948 356H89.936V353H94.948V356ZM104.972 356H99.96V353H104.972V356ZM114.996 356H109.984V353H114.996V356ZM125.02 356H120.008V353H125.02V356ZM135.044 356H130.032V353H135.044V356ZM145.068 356H140.056V353H145.068V356ZM155.092 356H150.08V353H155.092V356ZM165.116 356H160.104V353H165.116V356ZM175.14 356H170.128V353H175.14V356ZM185.164 356H180.152V353H185.164V356ZM195.188 356H190.176V353H195.188V356ZM205.212 356H200.2V353H205.212V356ZM215.236 356H210.224V353H215.236V356ZM225.26 356H220.248V353H225.26V356ZM235.284 356H230.272V353H235.284V356ZM245.308 356H240.296V353H245.308V356ZM255.332 356H250.32V353H255.332V356ZM265.356 356H260.344V353H265.356V356ZM275.38 356H270.368V353H275.38V356ZM285.404 356H280.392V353H285.404V356ZM295.428 356H290.416V353H295.428V356ZM305.452 356H300.44V353H305.452V356ZM315.476 356H310.464V353H315.476V356ZM325.5 356H320.488V353H325.5V356ZM335.524 356H330.512V353H335.524V356ZM345.548 356H340.536V353H345.548V356ZM355.572 356H350.56V353H355.572V356ZM365.596 356H360.584V353H365.596V356ZM375.62 356H370.608V353H375.62V356ZM385.644 356H380.632V353H385.644V356ZM395.668 356H390.656V353H395.668V356ZM405.692 356H400.68V353H405.692V356ZM415.716 356H410.704V353H415.716V356ZM425.74 356H420.728V353H425.74V356ZM435.764 356H430.752V353H435.764V356ZM445.788 356H440.776V353H445.788V356ZM455.812 356H450.8V353H455.812V356ZM465.836 356H460.824V353H465.836V356ZM475.86 356H470.848V353H475.86V356ZM485.884 356H480.872V353H485.884V356ZM495.908 356H490.896V353H495.908V356ZM505.932 356H500.92V353H505.932V356ZM515.956 356H510.944V353H515.956V356ZM525.98 356H520.968V353H525.98V356ZM536.004 356H530.992V353H536.004V356ZM546.028 356H541.016V353H546.028V356ZM556.052 356H551.04V353H556.052V356ZM566.076 356H561.064V353H566.076V356ZM576.1 356H571.088V353H576.1V356ZM586.124 356H581.112V353H586.124V356ZM596.148 356H591.136V353H596.148V356ZM606.172 356H601.16V353H606.172V356ZM616.196 356H611.184V353H616.196V356ZM626.22 356H621.208V353H626.22V356ZM636.244 356H631.232V353H636.244V356Z" fill="#F2A950"/>
</svg>
