<svg width="34" height="17" viewBox="0 0 34 17" xmlns="http://www.w3.org/2000/svg"><path fill-rule="evenodd" clip-rule="evenodd" d="M26.4955 3.07902C26.263 3.31512 26.2659 3.69502 26.502 3.92752L30.5356 7.90002H1.9999C1.66853 7.90002 1.3999 8.16872 1.3999 8.50002C1.3999 8.83142 1.66853 9.10002 1.9999 9.10002H30.5356L26.502 13.0725C26.2659 13.3051 26.263 13.6849 26.4955 13.921C26.728 14.1571 27.1079 14.16 27.344 13.9275L32.4209 8.92752C32.5354 8.81472 32.5999 8.66072 32.5999 8.50002C32.5999 8.33932 32.5354 8.18532 32.4209 8.07252L27.344 3.07252C27.1079 2.84002 26.728 2.84292 26.4955 3.07902Z"/></svg>