<svg width="44" height="44" viewBox="0 0 44 44" xmlns="http://www.w3.org/2000/svg"><path fill-rule="evenodd" clip-rule="evenodd" d="M14.6351 3.092C10.1214 4.60529 6.03276 7.72585 4.37342 12.8614C0.9691 23.3974 6.50562 31.2724 9.62888 33.8501L9.99236 34.1501V44H7.99236V35.0801C4.40254 31.8726 -1.13158 23.3939 2.4703 12.2464C4.37608 6.34822 9.06165 2.85118 13.9993 1.19573C18.9019 -0.447967 24.231 -0.338501 27.6467 1.16515C31.1015 2.68598 36.7195 6.92263 38.9198 14.4812C39.8089 17.5356 40.5091 20.3098 41.0552 22.5205C41.1377 22.8544 41.2164 23.1739 41.2913 23.4784C41.7197 25.2196 42.0274 26.4699 42.2497 27.1305L42.6936 28.4494H36.1744V35.9315C36.1744 37.5884 34.8313 38.9315 33.1744 38.9315H27.2616V44H25.2616V36.9315H33.1744C33.7267 36.9315 34.1744 36.4838 34.1744 35.9315V26.4494H39.974C39.792 25.7576 39.5832 24.9084 39.3461 23.944C39.2714 23.6403 39.1939 23.3253 39.1136 23.0001C38.5695 20.7973 37.877 18.0547 36.9995 15.0402C35.0007 8.17376 29.8854 4.33588 26.8409 2.99564C23.9831 1.73761 19.1838 1.56696 14.6351 3.092Z"/><path fill-rule="evenodd" clip-rule="evenodd" d="M17.1462 12.2107C17.5822 12.5498 17.6606 13.1781 17.3215 13.614C14.323 17.4686 15.3216 21.9803 16.1641 23.4961C17.166 25.2988 19.3626 26.4444 22.3152 25.8365C23.6602 25.5596 24.3783 24.757 24.7915 23.8604C25.2228 22.9245 25.3019 21.9097 25.3019 21.3986C25.3019 20.8155 25.2734 20.0902 24.9572 19.4803C24.6861 18.9574 24.1365 18.3904 22.7566 18.2456C22.0939 18.1761 21.6942 18.3047 21.442 18.4626C21.1812 18.6259 20.9775 18.8839 20.8222 19.236C20.4938 19.9806 20.4805 20.9056 20.4805 21.3986C20.4805 21.9509 20.0328 22.3986 19.4805 22.3986C18.9282 22.3986 18.4805 21.9509 18.4805 21.3986L18.4805 21.3784C18.4804 20.895 18.4801 19.5901 18.9922 18.429C19.2609 17.8199 19.6917 17.1988 20.3806 16.7675C21.078 16.3308 21.9433 16.1493 22.9653 16.2565C24.9547 16.4653 26.1257 17.3889 26.7327 18.5598C27.2947 19.6437 27.3019 20.8153 27.3019 21.3986C27.3019 22.0537 27.2089 23.3934 26.6079 24.6975C25.9888 26.0409 24.8145 27.3638 22.7185 27.7954C19.0289 28.5551 15.8985 27.1351 14.4159 24.4677C13.2929 22.4472 12.1275 17.0336 15.7429 12.386C16.082 11.9501 16.7103 11.8716 17.1462 12.2107Z"/></svg>