<svg width="34" height="34" viewBox="0 0 34 34" xmlns="http://www.w3.org/2000/svg"><path fill-rule="evenodd" clip-rule="evenodd" d="M5.35147 5.35147C5.8201 4.88284 6.57989 4.88284 7.04852 5.35147L17 15.3029L26.9515 5.35147C27.4201 4.88284 28.1799 4.88284 28.6485 5.35147C29.1172 5.8201 29.1172 6.57989 28.6485 7.04852L18.6971 17L28.6484 26.9514C29.117 27.42 29.117 28.1798 28.6484 28.6484C28.1798 29.117 27.42 29.117 26.9514 28.6484L17 18.6971L7.04852 28.6485C6.57989 29.1172 5.8201 29.1172 5.35147 28.6485C4.88284 28.1799 4.88284 27.4201 5.35147 26.9515L15.3029 17L5.35147 7.04852C4.88284 6.57989 4.88284 5.8201 5.35147 5.35147Z"/></svg>