<?xml version="1.0" encoding="utf-8"?><svg viewBox="0 0 994 234" xmlns="http://www.w3.org/2000/svg" xmlns:xlink="http://www.w3.org/1999/xlink"><style>:root>svg{display:none}:root>svg:target{display:block}</style><svg viewBox="0 0 34 17" id="arrow-type-1" xmlns="http://www.w3.org/2000/svg"><path fill-rule="evenodd" clip-rule="evenodd" d="M26.495 3.079a.6.6 0 00.007.849L30.536 7.9H2a.6.6 0 000 1.2h28.536l-4.034 3.973a.6.6 0 00.842.854l5.077-5a.6.6 0 000-.854l-5.077-5a.6.6 0 00-.849.006z"/></svg><svg viewBox="0 0 74 24" id="arrow-type-2" xmlns="http://www.w3.org/2000/svg"><path fill-rule="evenodd" clip-rule="evenodd" d="M10.787 3.296a1 1 0 01-.006 1.414L4.43 11H72a1 1 0 110 2H4.43l6.35 6.29a1 1 0 11-1.407 1.42l-8.077-8a1 1 0 010-1.42l8.077-8a1 1 0 011.414.006z"/></svg><svg viewBox="0 0 24 24" id="arrow-type-3" xmlns="http://www.w3.org/2000/svg"><path fill-rule="evenodd" clip-rule="evenodd" d="M4.47 7.97a.75.75 0 011.06 0L12 14.44l6.47-6.47a.75.75 0 111.06 1.06l-7 7a.75.75 0 01-1.06 0l-7-7a.75.75 0 010-1.06z"/></svg><svg viewBox="0 0 24 24" id="arrow-type-4" xmlns="http://www.w3.org/2000/svg"><path fill-rule="evenodd" clip-rule="evenodd" d="M15.47 6.47a.75.75 0 011.06 0l5 5a.75.75 0 010 1.06l-5 5a.75.75 0 11-1.06-1.06l3.72-3.72H3a.75.75 0 010-1.5h16.19l-3.72-3.72a.75.75 0 010-1.06z"/></svg><svg viewBox="0 0 16 16" id="checked" xmlns="http://www.w3.org/2000/svg"><path fill-rule="evenodd" clip-rule="evenodd" d="M12.505 4.445a.75.75 0 01.05 1.06l-5.455 6a.75.75 0 01-1.11 0l-2.545-2.8a.75.75 0 011.11-1.01l1.99 2.19 4.9-5.39a.75.75 0 011.06-.05z"/></svg><svg viewBox="0 0 44 44" id="client" xmlns="http://www.w3.org/2000/svg"><path fill-rule="evenodd" clip-rule="evenodd" d="M14.635 3.092c-4.514 1.513-8.602 4.634-10.262 9.77C.97 23.396 6.506 31.271 9.63 33.85l.363.3V44h-2v-8.92c-3.59-3.207-9.124-11.686-5.522-22.834C4.376 6.348 9.062 2.851 14 1.196 18.901-.448 24.23-.34 27.646 1.166c3.455 1.52 9.072 5.757 11.273 13.315.889 3.055 1.59 5.829 2.135 8.04l.236.957c.429 1.742.736 2.992.959 3.652l.444 1.32h-6.52v7.482a3 3 0 01-3 3h-5.912V44h-2v-7.069h7.912a1 1 0 001-1V26.45h5.8c-.182-.691-.39-1.54-.628-2.505L39.114 23A197.334 197.334 0 0037 15.04C35 8.174 29.884 4.336 26.84 2.996c-2.857-1.258-7.656-1.429-12.205.096z"/><path fill-rule="evenodd" clip-rule="evenodd" d="M17.146 12.21a1 1 0 01.175 1.404c-2.998 3.855-2 8.366-1.157 9.882 1.002 1.803 3.199 2.948 6.151 2.34 1.345-.276 2.063-1.079 2.476-1.976.432-.936.51-1.95.51-2.461 0-.584-.028-1.309-.344-1.919-.27-.523-.82-1.09-2.2-1.234-.663-.07-1.063.059-1.315.217-.26.163-.465.42-.62.773-.328.745-.341 1.67-.341 2.163a1 1 0 11-2 0v-.02c0-.484 0-1.789.511-2.95.269-.61.7-1.23 1.389-1.662.697-.436 1.562-.618 2.584-.51 1.99.208 3.16 1.132 3.768 2.303.562 1.084.569 2.255.569 2.839 0 .655-.093 1.994-.694 3.299-.62 1.343-1.794 2.666-3.89 3.097-3.69.76-6.82-.66-8.302-3.327-1.123-2.02-2.289-7.434 1.327-12.082a1 1 0 011.403-.175z"/></svg><svg viewBox="0 0 34 34" id="close" xmlns="http://www.w3.org/2000/svg"><path fill-rule="evenodd" clip-rule="evenodd" d="M5.351 5.351a1.2 1.2 0 011.698 0L17 15.303l9.951-9.952a1.2 1.2 0 111.697 1.698L18.698 17l9.95 9.951a1.2 1.2 0 01-1.697 1.697L17 18.698l-9.951 9.95a1.2 1.2 0 11-1.698-1.697L15.303 17 5.35 7.049a1.2 1.2 0 010-1.698z"/></svg><svg viewBox="0 0 24 24" id="file-attach" xmlns="http://www.w3.org/2000/svg"><path fill-rule="evenodd" clip-rule="evenodd" d="M17.531 5.917c-1.65-1.556-4.344-1.556-5.995 0l-6.522 6.148a.75.75 0 01-1.028-1.092l6.521-6.148c2.229-2.1 5.824-2.1 8.053 0 2.254 2.125 2.253 5.589 0 7.713l-7.525 7.094c-1.582 1.49-4.13 1.49-5.711 0a3.746 3.746 0 010-5.506l7.524-7.093a2.478 2.478 0 013.371 0c.961.905.96 2.393 0 3.298l-6.522 6.148a.75.75 0 01-1.03-1.092L15.19 9.24a.748.748 0 000-1.115.979.979 0 00-1.313 0l-7.525 7.094c-.979.922-.979 2.4 0 3.322 1.005.947 2.65.947 3.654 0l7.525-7.093c1.625-1.533 1.625-3.998 0-5.53z"/></svg><svg fill="none" viewBox="0 0 994 234" id="our-workflow-road-map-desktop" xmlns="http://www.w3.org/2000/svg"><g clip-path="url(#iclip0_110_77)" fill-rule="evenodd" clip-rule="evenodd"><path d="M892 23H16v-6h876c55.781 0 101 45.22 101 101 0 55.781-45.219 101-101 101H16v-6h876c52.467 0 95-42.533 95-95s-42.533-95-95-95z" fill="url(#ipaint0_linear_110_77)"/><path d="M987.5 118.5c0 52.467-42.533 95-95 95h-876v6h876c55.781 0 101-45.219 101-101h-6z" fill="url(#ipaint1_linear_110_77)"/><path d="M5.013 1.576c2.875-1.704 6.71-1.392 10.738.992l12.552 7.419c4.03 2.386 6.197 5.63 6.197 9.013 0 3.384-2.167 6.628-6.198 9.014l-12.551 7.418c-4.028 2.384-7.863 2.696-10.738.992C2.146 34.724.5 31.174.5 26.42V11.582c0-4.755 1.646-8.306 4.513-10.006z" fill="#BF0606"/><path d="M4.758 1.146c3.087-1.83 7.127-1.447 11.248.992l12.551 7.418C32.683 12 35 15.383 35 19c0 3.618-2.317 7.002-6.443 9.445l-12.551 7.418m-.51-32.864C11.562.669 7.931.429 5.268 2.007 2.608 3.584 1 6.927 1 11.582V26.42c0 4.654 1.608 7.998 4.268 9.575 2.663 1.578 6.294 1.337 10.228-.992l12.552-7.418C31.983 25.254 34 22.15 34 19c0-3.149-2.016-6.253-5.951-8.583" fill="#BF0606"/><path d="M235.013 2.076c2.875-1.704 6.711-1.392 10.738.992l12.552 7.419c4.03 2.386 6.197 5.63 6.197 9.013 0 3.384-2.167 6.628-6.197 9.014l-12.552 7.418c-4.028 2.384-7.863 2.696-10.738.992-2.867-1.7-4.513-5.25-4.513-10.005V12.082c0-4.755 1.646-8.306 4.513-10.006z" fill="#E3223B"/><path d="M234.758 1.646c3.087-1.83 7.127-1.447 11.248.992l12.551 7.418C262.683 12.5 265 15.883 265 19.5c0 3.618-2.317 7.002-6.443 9.445l-12.552 7.418m-.509-32.864c-3.934-2.33-7.565-2.57-10.228-.992-2.66 1.577-4.268 4.92-4.268 9.575V26.92c0 4.654 1.608 7.998 4.268 9.575 2.663 1.578 6.294 1.337 10.228-.992l12.552-7.418C261.983 25.754 264 22.65 264 19.5c0-3.149-2.016-6.253-5.951-8.583" fill="#E3223B"/><path d="M465.013 2.076c2.875-1.704 6.711-1.392 10.738.992l12.552 7.419c4.03 2.386 6.197 5.63 6.197 9.013 0 3.384-2.167 6.628-6.197 9.014l-12.552 7.418c-4.028 2.384-7.863 2.696-10.738.992-2.867-1.7-4.513-5.25-4.513-10.005V12.082c0-4.755 1.646-8.306 4.513-10.006z" fill="#FF5931"/><path d="M464.758 1.646c3.087-1.83 7.127-1.447 11.248.992l12.551 7.418C492.683 12.5 495 15.883 495 19.5c0 3.618-2.317 7.002-6.443 9.445l-12.552 7.418m-.509-32.864c-3.934-2.33-7.565-2.57-10.228-.992-2.66 1.577-4.268 4.92-4.268 9.575V26.92c0 4.654 1.608 7.998 4.268 9.575 2.663 1.578 6.294 1.337 10.228-.992l12.552-7.418C491.983 25.754 494 22.65 494 19.5c0-3.149-2.016-6.253-5.951-8.583" fill="#FF5931"/><path d="M695.013 2.076c2.875-1.704 6.711-1.392 10.738.992l12.552 7.419c4.03 2.386 6.197 5.63 6.197 9.013 0 3.384-2.167 6.628-6.197 9.014l-12.552 7.418c-4.028 2.384-7.863 2.696-10.738.992-2.867-1.7-4.513-5.25-4.513-10.005V12.082c0-4.755 1.646-8.306 4.513-10.006z" fill="#F2A950"/><path d="M694.758 1.646c3.087-1.83 7.127-1.447 11.248.992l12.551 7.418C722.683 12.5 725 15.883 725 19.5c0 3.618-2.317 7.002-6.443 9.445l-12.552 7.418c.001 0 0 0 0 0m-.509-32.864c-3.934-2.33-7.565-2.57-10.228-.992-2.66 1.577-4.268 4.92-4.268 9.575V26.92c0 4.654 1.608 7.998 4.268 9.575 2.663 1.578 6.294 1.337 10.228-.992l12.552-7.418C721.983 25.754 724 22.65 724 19.5c0-3.149-2.016-6.253-5.951-8.583" fill="#F2A950"/><path d="M719.987 198.076c-2.875-1.704-6.711-1.392-10.738.993l-12.552 7.418c-4.03 2.386-6.197 5.63-6.197 9.013 0 3.384 2.167 6.628 6.197 9.014l12.552 7.418c4.028 2.385 7.863 2.696 10.738.992 2.867-1.7 4.513-5.25 4.513-10.005v-14.837c0-4.755-1.646-8.306-4.513-10.006z" fill="#753FBF"/><path d="M720.242 197.646c-3.087-1.829-7.127-1.447-11.248.992l-12.551 7.418c-4.126 2.443-6.443 5.827-6.443 9.444 0 3.618 2.317 7.002 6.443 9.445l12.552 7.418m.509-32.864c3.934-2.329 7.565-2.571 10.228-.992 2.66 1.577 4.268 4.921 4.268 9.575v14.837c0 4.654-1.608 7.998-4.268 9.575-2.663 1.578-6.294 1.337-10.228-.992l-12.552-7.418c-3.935-2.33-5.952-5.434-5.952-8.584 0-3.149 2.016-6.253 5.951-8.583" fill="#753FBF"/><path d="M29.987 198.076c-2.875-1.704-6.71-1.392-10.738.993l-12.552 7.418C2.667 208.873.5 212.117.5 215.5c0 3.384 2.167 6.628 6.197 9.014l12.552 7.418c4.028 2.385 7.863 2.696 10.738.992 2.867-1.7 4.513-5.25 4.513-10.005v-14.837c0-4.755-1.646-8.306-4.513-10.006z" fill="#0583F2"/><path d="M30.241 197.646c-3.086-1.829-7.126-1.447-11.247.992l-12.551 7.418C2.317 208.499 0 211.883 0 215.5c0 3.618 2.317 7.002 6.443 9.445l12.552 7.418m.509-32.864c3.934-2.329 7.565-2.571 10.228-.992 2.66 1.577 4.268 4.921 4.268 9.575v14.837c0 4.654-1.608 7.998-4.268 9.575-2.663 1.578-6.294 1.337-10.228-.992l-12.552-7.418C3.017 221.754 1 218.65 1 215.5c0-3.149 2.016-6.253 5.951-8.583" fill="#0583F2"/><path d="M259.987 198.076c-2.875-1.704-6.711-1.392-10.738.993l-12.552 7.418c-4.03 2.386-6.197 5.63-6.197 9.013 0 3.384 2.167 6.628 6.197 9.014l12.552 7.418c4.028 2.385 7.863 2.696 10.738.992 2.867-1.7 4.513-5.25 4.513-10.005v-14.837c0-4.755-1.646-8.306-4.513-10.006z" fill="#2496FA"/><path d="M260.242 197.646c-3.087-1.829-7.127-1.447-11.248.992l-12.551 7.418c-4.126 2.443-6.443 5.827-6.443 9.444 0 3.618 2.317 7.002 6.443 9.445l12.552 7.418m.509-32.864c3.934-2.329 7.565-2.571 10.228-.992 2.66 1.577 4.268 4.921 4.268 9.575v14.837c0 4.654-1.608 7.998-4.268 9.575-2.663 1.578-6.294 1.337-10.228-.992l-12.552-7.418c-3.935-2.33-5.952-5.434-5.952-8.584 0-3.149 2.016-6.253 5.951-8.583" fill="#2496FA"/><path d="M489.987 198.076c-2.875-1.704-6.711-1.392-10.738.993l-12.552 7.418c-4.03 2.386-6.197 5.63-6.197 9.013 0 3.384 2.167 6.628 6.197 9.014l12.552 7.418c4.028 2.385 7.863 2.696 10.738.992 2.867-1.7 4.513-5.25 4.513-10.005v-14.837c0-4.755-1.646-8.306-4.513-10.006z" fill="#8448D9"/><path d="M490.242 197.646c-3.087-1.829-7.127-1.447-11.248.992l-12.551 7.418c-4.126 2.443-6.443 5.827-6.443 9.444 0 3.618 2.317 7.002 6.443 9.445l12.552 7.418m.509-32.864c3.934-2.329 7.565-2.571 10.228-.992 2.66 1.577 4.268 4.921 4.268 9.575v14.837c0 4.654-1.608 7.998-4.268 9.575-2.663 1.578-6.294 1.337-10.228-.992l-12.552-7.418c-3.935-2.33-5.952-5.434-5.952-8.584 0-3.149 2.016-6.253 5.951-8.583" fill="#8448D9"/></g><defs><linearGradient id="ipaint0_linear_110_77" x1="2" y1="20" x2="990" y2="108.5" gradientUnits="userSpaceOnUse"><stop stop-color="#BF0606"/><stop offset=".265" stop-color="#E3223B"/><stop offset=".535" stop-color="#FF5931"/><stop offset=".75" stop-color="#F2A950"/></linearGradient><linearGradient id="ipaint1_linear_110_77" x1="2.5" y1="216.5" x2="990.5" y2="109" gradientUnits="userSpaceOnUse"><stop offset=".023" stop-color="#056CF2"/><stop offset=".261" stop-color="#0583F2"/><stop offset=".468" stop-color="#8448D9"/><stop offset=".881" stop-color="#753FBF"/><stop offset="1" stop-color="#F2A950"/></linearGradient><clipPath id="iclip0_110_77"><path fill="#fff" d="M0 0h994v234H0z"/></clipPath></defs></svg><svg viewBox="0 0 40 40" id="services-type-1" xmlns="http://www.w3.org/2000/svg"><path fill-rule="evenodd" clip-rule="evenodd" d="M20 39c10.493 0 19-8.507 19-19S30.493 1 20 1 1 9.507 1 20s8.507 19 19 19zm0 1c11.046 0 20-8.954 20-20S31.046 0 20 0 0 8.954 0 20s8.954 20 20 20z"/><path fill-rule="evenodd" clip-rule="evenodd" d="M16.17 10.25h4.837c.29.004.545.013.807.076.281.067.55.179.795.33.279.17.512.404.808.7l.05.051 3.126 3.126.048.047c.298.298.531.531.703.811.15.246.262.514.33.795.06.249.071.491.075.764a.824.824 0 010 .085l.001.29v8.509c0 .533 0 .978-.03 1.342-.03.38-.098.735-.27 1.072a2.753 2.753 0 01-1.202 1.203c-.337.171-.693.238-1.073.27-.363.029-.808.029-1.341.029h-7.668c-.533 0-.978 0-1.342-.03-.38-.03-.736-.098-1.073-.27a2.75 2.75 0 01-1.201-1.202c-.172-.337-.24-.693-.27-1.073-.03-.364-.03-.81-.03-1.344V14.17c0-.534 0-.98.03-1.345.03-.38.098-.736.27-1.074a2.75 2.75 0 011.201-1.201c.338-.172.694-.24 1.074-.27.365-.03.81-.03 1.345-.03zm9.938 6a1.286 1.286 0 00-.043-.075c-.067-.109-.162-.211-.532-.582l-3.126-3.125c-.37-.371-.474-.467-.582-.534a1.286 1.286 0 00-.075-.042V13.8c0 .572 0 .957.025 1.252.023.287.065.425.111.515.12.236.312.428.546.547.09.046.228.088.515.111.295.024.679.025 1.25.025h1.91zm-5.858-4.5v2.08c0 .535 0 .98.03 1.345.03.38.098.736.27 1.073.263.517.683.938 1.201 1.203.337.171.694.238 1.073.27.364.029.81.029 1.342.029h2.084v8.054c0 .57 0 .954-.025 1.25-.023.286-.065.423-.111.513-.12.235-.312.427-.547.547-.09.046-.227.088-.514.111-.295.024-.679.025-1.25.025h-7.606c-.571 0-.955 0-1.25-.025-.287-.023-.424-.065-.515-.111a1.251 1.251 0 01-.546-.547c-.046-.09-.088-.227-.111-.514-.024-.296-.025-.68-.025-1.253V14.2c0-.572 0-.957.025-1.253.023-.287.065-.424.111-.515.12-.235.311-.426.546-.546.09-.046.228-.088.515-.111.296-.024.68-.025 1.253-.025h4.05zm3.28 8.72a.75.75 0 010 1.06l-4 4a.75.75 0 01-1.06 0l-2-2a.75.75 0 111.06-1.06L19 23.94l3.47-3.47a.75.75 0 011.06 0z"/></svg><svg viewBox="0 0 40 40" id="services-type-2" xmlns="http://www.w3.org/2000/svg"><path fill-rule="evenodd" clip-rule="evenodd" d="M20 39c10.493 0 19-8.507 19-19S30.493 1 20 1 1 9.507 1 20s8.507 19 19 19zm0 1c11.046 0 20-8.954 20-20S31.046 0 20 0 0 8.954 0 20s8.954 20 20 20z"/><path fill-rule="evenodd" clip-rule="evenodd" d="M11.784 19.25h3.48c.08-2.273.523-4.345 1.222-5.919.163-.366.342-.71.537-1.028a8.257 8.257 0 00-5.24 6.947zm8.216-9c-5.385 0-9.75 4.365-9.75 9.75s4.365 9.75 9.75 9.75 9.75-4.365 9.75-9.75-4.365-9.75-9.75-9.75zm0 1.5c-.308 0-.658.137-1.04.5-.385.367-.767.934-1.103 1.69-.601 1.354-1.013 3.21-1.093 5.31h6.472c-.08-2.1-.492-3.956-1.093-5.31-.336-.756-.718-1.323-1.103-1.69-.382-.363-.732-.5-1.04-.5zm4.737 7.5c-.08-2.273-.524-4.345-1.223-5.919a8.702 8.702 0 00-.537-1.028 8.257 8.257 0 015.24 6.947h-3.48zm-1.501 1.5h-6.472c.08 2.1.492 3.956 1.093 5.31.336.756.718 1.323 1.103 1.69.382.363.732.5 1.04.5.308 0 .658-.137 1.04-.5.385-.367.767-.934 1.103-1.69.601-1.354 1.013-3.21 1.093-5.31zm-.26 6.947c.196-.317.375-.662.538-1.028.7-1.574 1.142-3.646 1.223-5.919h3.48a8.257 8.257 0 01-5.24 6.947zm-5.953 0a8.702 8.702 0 01-.537-1.028c-.7-1.574-1.142-3.646-1.223-5.919h-3.48a8.257 8.257 0 005.24 6.947z"/></svg><svg viewBox="0 0 40 40" id="services-type-3" xmlns="http://www.w3.org/2000/svg"><path fill-rule="evenodd" clip-rule="evenodd" d="M20 39c10.493 0 19-8.507 19-19S30.493 1 20 1 1 9.507 1 20s8.507 19 19 19zm0 1c11.046 0 20-8.954 20-20S31.046 0 20 0 0 8.954 0 20s8.954 20 20 20z"/><path fill-rule="evenodd" clip-rule="evenodd" d="M14.17 13.25h11.66c.535 0 .98 0 1.345.03.38.03.736.098 1.073.27.517.263.938.683 1.203 1.201.171.337.238.694.27 1.073.029.364.029.81.029 1.342v5.668c0 .533 0 .978-.03 1.341-.03.38-.098.736-.27 1.073a2.755 2.755 0 01-1.202 1.203c-.337.171-.693.238-1.073.27-.363.029-.808.029-1.341.029H13.999c-.486 0-.9-.003-1.244-.036-.353-.033-.687-.102-1.004-.263a2.752 2.752 0 01-1.201-1.203c-.172-.337-.24-.694-.27-1.074-.03-.363-.03-.81-.03-1.343V17.17c0-.534 0-.98.03-1.345.03-.38.098-.736.27-1.074a2.75 2.75 0 011.201-1.201c.338-.172.694-.24 1.074-.27.365-.03.81-.03 1.345-.03zm-1.223 1.525c-.287.023-.424.065-.515.111a1.25 1.25 0 00-.546.546c-.046.09-.088.228-.111.515-.024.296-.025.68-.025 1.253v5.6c0 .573 0 .957.025 1.252.023.287.065.424.111.515.12.236.312.427.546.547.085.043.211.083.465.107.138.013.297.02.491.024.202-.533.604-.97 1.075-1.283.682-.455 1.581-.712 2.537-.712s1.855.257 2.537.712c.472.314.876.753 1.077 1.288h5.19c.57 0 .954 0 1.25-.025.286-.023.423-.065.513-.111.235-.12.427-.312.547-.547.046-.09.088-.227.111-.514.024-.295.025-.679.025-1.25v-5.606c0-.571 0-.955-.025-1.25-.023-.287-.065-.424-.111-.515a1.252 1.252 0 00-.547-.546c-.09-.046-.228-.088-.515-.111-.295-.024-.68-.025-1.252-.025H14.2c-.572 0-.957 0-1.253.025zm5.816 10.475a2.25 2.25 0 00-.058-.04c-.403-.27-1.004-.46-1.705-.46-.701 0-1.302.19-1.705.46a2.25 2.25 0 00-.058.04h3.526zM17 17.75a1.25 1.25 0 100 2.5 1.25 1.25 0 000-2.5zM14.25 19a2.75 2.75 0 115.5 0 2.75 2.75 0 01-5.5 0zm8 0a.75.75 0 01.75-.75h3a.75.75 0 010 1.5h-3a.75.75 0 01-.75-.75zm-1 3a.75.75 0 01.75-.75h4a.75.75 0 010 1.5h-4a.75.75 0 01-.75-.75z"/></svg></svg>