<svg width="40" height="40" viewBox="0 0 40 40" xmlns="http://www.w3.org/2000/svg"><path fill-rule="evenodd" clip-rule="evenodd" d="M20 39C30.4934 39 39 30.4934 39 20C39 9.50659 30.4934 1 20 1C9.50659 1 1 9.50659 1 20C1 30.4934 9.50659 39 20 39ZM20 40C31.0457 40 40 31.0457 40 20C40 8.9543 31.0457 0 20 0C8.9543 0 0 8.9543 0 20C0 31.0457 8.9543 40 20 40Z"/><path fill-rule="evenodd" clip-rule="evenodd" d="M14.1698 13.25H25.8307C26.3648 13.25 26.8105 13.25 27.1745 13.2797C27.5543 13.3108 27.9107 13.3779 28.2479 13.5497C28.7645 13.813 29.1864 14.233 29.4505 14.7513C29.6222 15.0884 29.6893 15.4449 29.7203 15.8243C29.75 16.1882 29.75 16.6334 29.75 17.1665V22.8335C29.75 23.3666 29.75 23.8116 29.7203 24.1753C29.6893 24.5547 29.6222 24.9109 29.4505 25.2479C29.1868 25.7653 28.7653 26.1868 28.2479 26.4505C27.9109 26.6222 27.5547 26.6893 27.1753 26.7203C26.8116 26.75 26.3666 26.75 25.8336 26.75L13.9994 26.75C13.513 26.7496 13.0998 26.7469 12.7551 26.7142C12.4017 26.6807 12.0682 26.612 11.7513 26.4505C11.233 26.1864 10.813 25.7645 10.5497 25.2479C10.3779 24.9107 10.3108 24.5543 10.2797 24.1745C10.25 23.8105 10.25 23.3648 10.25 22.8307V17.1698C10.25 16.6356 10.25 16.1897 10.2797 15.8253C10.3108 15.4454 10.3779 15.0886 10.5497 14.7513C10.8134 14.2339 11.2339 13.8134 11.7513 13.5497C12.0886 13.3779 12.4454 13.3108 12.8253 13.2797C13.1897 13.25 13.6356 13.25 14.1698 13.25ZM12.9474 14.7748C12.6602 14.7982 12.5228 14.8401 12.4323 14.8862C12.1971 15.0061 12.0061 15.1971 11.8862 15.4323C11.8401 15.5228 11.7982 15.6602 11.7748 15.9474C11.7506 16.2434 11.75 16.6278 11.75 17.2002V22.8002C11.75 23.3726 11.7506 23.7566 11.7748 24.0523C11.7982 24.3391 11.8401 24.4763 11.8862 24.5669C12.0065 24.8029 12.1979 24.9945 12.4323 25.114C12.5169 25.1571 12.6434 25.1969 12.8967 25.2209C13.0347 25.234 13.1945 25.2412 13.3882 25.2452C13.5898 24.7122 13.9921 24.2754 14.4627 23.9617C15.1449 23.5069 16.0442 23.25 17 23.25C17.9558 23.25 18.8551 23.5069 19.5373 23.9618C20.0093 24.2764 20.4126 24.7148 20.6136 25.25H25.8031C26.3744 25.25 26.7578 25.2494 27.0531 25.2253C27.3395 25.2019 27.4765 25.16 27.5669 25.114C27.8021 24.9941 27.9941 24.8021 28.114 24.5669C28.16 24.4765 28.2019 24.3395 28.2253 24.0531C28.2494 23.7578 28.25 23.3744 28.25 22.8031V17.1969C28.25 16.6256 28.2494 16.242 28.2253 15.9465C28.2018 15.6597 28.16 15.5226 28.114 15.4323C27.9945 15.1979 27.8029 15.0065 27.5669 14.8862C27.4763 14.8401 27.3391 14.7982 27.0523 14.7748C26.7566 14.7506 26.3726 14.75 25.8002 14.75H14.2002C13.6278 14.75 13.2434 14.7506 12.9474 14.7748ZM18.7634 25.25C18.7447 25.2366 18.7253 25.2232 18.7053 25.2098C18.3017 24.9408 17.701 24.75 17 24.75C16.299 24.75 15.6983 24.9408 15.2947 25.2098C15.2747 25.2232 15.2553 25.2366 15.2366 25.25H18.7634ZM17 17.75C16.3096 17.75 15.75 18.3096 15.75 19C15.75 19.6904 16.3096 20.25 17 20.25C17.6904 20.25 18.25 19.6904 18.25 19C18.25 18.3096 17.6904 17.75 17 17.75ZM14.25 19C14.25 17.4812 15.4812 16.25 17 16.25C18.5188 16.25 19.75 17.4812 19.75 19C19.75 20.5188 18.5188 21.75 17 21.75C15.4812 21.75 14.25 20.5188 14.25 19ZM22.25 19C22.25 18.5858 22.5858 18.25 23 18.25H26C26.4142 18.25 26.75 18.5858 26.75 19C26.75 19.4142 26.4142 19.75 26 19.75H23C22.5858 19.75 22.25 19.4142 22.25 19ZM21.25 22C21.25 21.5858 21.5858 21.25 22 21.25H26C26.4142 21.25 26.75 21.5858 26.75 22C26.75 22.4142 26.4142 22.75 26 22.75H22C21.5858 22.75 21.25 22.4142 21.25 22Z"/></svg>