<svg width="40" height="40" viewBox="0 0 40 40" xmlns="http://www.w3.org/2000/svg"><path fill-rule="evenodd" clip-rule="evenodd" d="M20 39C30.4934 39 39 30.4934 39 20C39 9.50659 30.4934 1 20 1C9.50659 1 1 9.50659 1 20C1 30.4934 9.50659 39 20 39ZM20 40C31.0457 40 40 31.0457 40 20C40 8.9543 31.0457 0 20 0C8.9543 0 0 8.9543 0 20C0 31.0457 8.9543 40 20 40Z"/><path fill-rule="evenodd" clip-rule="evenodd" d="M16.1698 10.25L20.6772 10.25C20.7978 10.25 20.9079 10.25 21.0068 10.2509C21.297 10.2535 21.5519 10.2631 21.8139 10.326C22.0951 10.3935 22.3631 10.505 22.6087 10.6554C22.8878 10.8265 23.121 11.0599 23.4166 11.3559C23.4335 11.3728 23.4505 11.3899 23.4678 11.4072L26.5933 14.5327C26.6093 14.5487 26.6252 14.5645 26.6408 14.5801C26.9393 14.8783 27.1723 15.1111 27.344 15.3913C27.4944 15.6368 27.6061 15.905 27.6736 16.1862C27.7333 16.4349 27.7452 16.6771 27.7486 16.9501C27.7496 16.9666 27.7502 16.9832 27.7502 17C27.7502 17.0119 27.7499 17.0236 27.7494 17.0354C27.75 17.124 27.75 17.2208 27.75 17.3257V25.834C27.75 26.3671 27.75 26.8121 27.7203 27.1758C27.6893 27.5552 27.6222 27.9114 27.4505 28.2484C27.1866 28.7662 26.7649 29.187 26.2479 29.4505C25.9109 29.6222 25.5547 29.6893 25.1753 29.7203C24.8116 29.75 24.3666 29.75 23.8335 29.75L16.1665 29.75C15.6334 29.75 15.1882 29.75 14.8243 29.7203C14.4449 29.6893 14.0884 29.6222 13.7513 29.4505C13.2334 29.1866 12.8132 28.7654 12.5497 28.2484C12.3779 27.9111 12.3108 27.5546 12.2797 27.1747C12.25 26.8106 12.25 26.3648 12.25 25.8306V14.1698C12.25 13.6356 12.25 13.1897 12.2797 12.8253C12.3108 12.4454 12.3779 12.0886 12.5497 11.7513C12.8134 11.2339 13.2339 10.8134 13.7513 10.5497C14.0886 10.3779 14.4454 10.3108 14.8253 10.2797C15.1897 10.25 15.6356 10.25 16.1698 10.25ZM26.1076 16.25C26.0943 16.2246 26.0801 16.1996 26.0651 16.1751C25.9984 16.0663 25.9031 15.9637 25.5327 15.5933L22.4072 12.4678C22.0362 12.0969 21.9334 12.0009 21.8249 11.9344C21.8004 11.9194 21.7754 11.9052 21.75 11.8919V13.8C21.75 14.3724 21.7506 14.7565 21.7748 15.0523C21.7982 15.3393 21.8401 15.4765 21.8862 15.5671C22.0064 15.803 22.1977 15.9945 22.4323 16.114C22.5226 16.16 22.6597 16.2018 22.9465 16.2253C23.242 16.2494 23.6256 16.25 24.1969 16.25H26.1076ZM20.25 11.75V13.8305C20.25 14.3646 20.25 14.8103 20.2797 15.1745C20.3108 15.5543 20.3779 15.9109 20.5497 16.2481C20.8131 16.7649 21.2332 17.1865 21.7513 17.4505C22.0884 17.6222 22.4449 17.6893 22.8243 17.7203C23.1882 17.75 23.6334 17.75 24.1665 17.75H26.25V25.8036C26.25 26.3749 26.2494 26.7583 26.2253 27.0535C26.2019 27.34 26.16 27.477 26.114 27.5674C25.9943 27.8022 25.8025 27.9939 25.5669 28.114C25.4765 28.16 25.3395 28.2019 25.0531 28.2253C24.7578 28.2494 24.3744 28.25 23.8031 28.25L16.1969 28.25C15.6256 28.25 15.242 28.2494 14.9465 28.2253C14.6597 28.2018 14.5226 28.16 14.4323 28.114C14.1975 27.9943 14.0063 27.803 13.8862 27.5674C13.8401 27.4768 13.7982 27.3396 13.7748 27.0526C13.7506 26.7568 13.75 26.3726 13.75 25.8002V14.2002C13.75 13.6278 13.7506 13.2434 13.7748 12.9474C13.7982 12.6602 13.8401 12.5228 13.8862 12.4323C14.0061 12.1971 14.1971 12.0061 14.4323 11.8862C14.5228 11.8401 14.6602 11.7982 14.9474 11.7748C15.2434 11.7506 15.6278 11.75 16.2002 11.75H20.25ZM23.5303 20.4697C23.8232 20.7626 23.8232 21.2374 23.5303 21.5303L19.5303 25.5303C19.2374 25.8232 18.7626 25.8232 18.4697 25.5303L16.4697 23.5303C16.1768 23.2374 16.1768 22.7626 16.4697 22.4697C16.7626 22.1768 17.2374 22.1768 17.5303 22.4697L19 23.9393L22.4697 20.4697C22.7626 20.1768 23.2374 20.1768 23.5303 20.4697Z"/></svg>