<svg width="40" height="40" viewBox="0 0 40 40" xmlns="http://www.w3.org/2000/svg"><path fill-rule="evenodd" clip-rule="evenodd" d="M20 39C30.4934 39 39 30.4934 39 20C39 9.50659 30.4934 1 20 1C9.50659 1 1 9.50659 1 20C1 30.4934 9.50659 39 20 39ZM20 40C31.0457 40 40 31.0457 40 20C40 8.9543 31.0457 0 20 0C8.9543 0 0 8.9543 0 20C0 31.0457 8.9543 40 20 40Z"/><path fill-rule="evenodd" clip-rule="evenodd" d="M11.7836 19.25H15.2632C15.3436 16.9772 15.7868 14.905 16.4862 13.3314C16.6489 12.9654 16.828 12.6205 17.0234 12.3033C14.1605 13.4113 12.0701 16.0706 11.7836 19.25ZM20 10.25C14.6152 10.25 10.25 14.6152 10.25 20C10.25 25.3848 14.6152 29.75 20 29.75C25.3848 29.75 29.75 25.3848 29.75 20C29.75 14.6152 25.3848 10.25 20 10.25ZM20 11.75C19.6918 11.75 19.3416 11.8874 18.9601 12.2506C18.5746 12.6174 18.1934 13.1836 17.8569 13.9406C17.2555 15.2938 16.8441 17.1509 16.7642 19.25H23.2358C23.1559 17.1509 22.7445 15.2938 22.1431 13.9406C21.8066 13.1836 21.4254 12.6174 21.0399 12.2506C20.6584 11.8874 20.3082 11.75 20 11.75ZM24.7368 19.25C24.6564 16.9772 24.2132 14.905 23.5138 13.3314C23.3511 12.9654 23.172 12.6205 22.9766 12.3033C25.8395 13.4113 27.9299 16.0706 28.2164 19.25H24.7368ZM23.2358 20.75H16.7642C16.8441 22.8491 17.2555 24.7062 17.8569 26.0594C18.1934 26.8164 18.5746 27.3826 18.9601 27.7494C19.3416 28.1126 19.6918 28.25 20 28.25C20.3082 28.25 20.6584 28.1126 21.0399 27.7494C21.4254 27.3826 21.8066 26.8164 22.1431 26.0594C22.7445 24.7062 23.1559 22.8491 23.2358 20.75ZM22.9766 27.6967C23.172 27.3795 23.3511 27.0346 23.5138 26.6686C24.2132 25.095 24.6564 23.0228 24.7368 20.75H28.2164C27.9299 23.9294 25.8395 26.5887 22.9766 27.6967ZM17.0234 27.6967C16.828 27.3795 16.6489 27.0346 16.4862 26.6686C15.7868 25.095 15.3436 23.0228 15.2632 20.75H11.7836C12.0701 23.9294 14.1605 26.5887 17.0234 27.6967Z"/></svg>