<svg width="74" height="24" viewBox="0 0 74 24" xmlns="http://www.w3.org/2000/svg"><path fill-rule="evenodd" clip-rule="evenodd" d="M10.7874 3.29629C11.1761 3.68869 11.173 4.32179 10.7806 4.71049L4.43064 11H72C72.5523 11 73 11.4477 73 12C73 12.5523 72.5523 13 72 13H4.43064L10.7806 19.2895C11.173 19.6782 11.1761 20.3113 10.7874 20.7037C10.3988 21.0961 9.7656 21.0991 9.37321 20.7105L1.29628 12.7105C1.10667 12.5227 1 12.2669 1 12C1 11.7331 1.10667 11.4773 1.29628 11.2895L9.37321 3.28949C9.7656 2.90089 10.3988 2.90389 10.7874 3.29629Z"/></svg>