<svg width="24" height="24" viewBox="0 0 24 24" xmlns="http://www.w3.org/2000/svg"><path fill-rule="evenodd" clip-rule="evenodd" d="M17.531 5.91696C15.8804 4.36101 13.1869 4.36101 11.5363 5.91696L5.01445 12.0649C4.71305 12.349 4.23838 12.335 3.95426 12.0336C3.67013 11.7322 3.68414 11.2575 3.98555 10.9734L10.5074 4.82547C12.7358 2.72484 16.3315 2.72484 18.5599 4.82547C20.8136 6.94987 20.8132 10.4137 18.5597 12.5379L11.0345 19.6317C9.45251 21.1229 6.9054 21.1227 5.32355 19.6315C3.71659 18.1167 3.71606 15.6414 5.32323 14.1264L12.8485 7.03261C13.7839 6.15084 15.2837 6.15084 16.2191 7.03261C17.18 7.93838 17.1789 9.42561 16.2187 10.3308L9.69679 16.4787C9.39538 16.7628 8.92071 16.7488 8.63659 16.4474C8.35247 16.146 8.36648 15.6713 8.66788 15.3872L15.1898 9.23932C15.5225 8.92566 15.5223 8.43719 15.1902 8.1241C14.8326 7.78701 14.235 7.78701 13.8774 8.1241L6.35213 15.2178C5.3733 16.1405 5.37341 17.6171 6.35245 18.54C7.3566 19.4866 9.00152 19.4867 10.0056 18.5402L17.5308 11.4465C19.1563 9.91417 19.1564 7.44915 17.531 5.91696Z"/></svg>