<svg width="994" height="234" viewBox="0 0 994 234" fill="none" xmlns="http://www.w3.org/2000/svg">
<g clip-path="url(#clip0_110_77)">
<path fill-rule="evenodd" clip-rule="evenodd" d="M892 23H16V17H892C947.781 17 993 62.2192 993 118C993 173.781 947.781 219 892 219H16V213H892C944.467 213 987 170.467 987 118C987 65.5329 944.467 23 892 23Z" fill="url(#paint0_linear_110_77)"/>
<path fill-rule="evenodd" clip-rule="evenodd" d="M987.5 118.5C987.5 170.967 944.967 213.5 892.5 213.5H16.5V219.5H892.5C948.281 219.5 993.5 174.281 993.5 118.5H987.5Z" fill="url(#paint1_linear_110_77)"/>
<path fill-rule="evenodd" clip-rule="evenodd" d="M5.01344 1.57645C7.88792 -0.127541 11.7235 0.184234 15.7511 2.56849L28.303 9.98675C32.3334 12.3728 34.5 15.617 34.5 19.0004C34.5 22.3838 32.3329 25.6283 28.3025 28.0143L15.7508 35.4324C11.7233 37.8165 7.88786 38.1283 5.01344 36.4243C2.14579 34.7244 0.5 31.1741 0.5 26.4185V11.5823C0.5 6.82663 2.14579 3.27639 5.01344 1.57645Z" fill="#BF0606"/>
<path fill-rule="evenodd" clip-rule="evenodd" d="M4.75848 1.14637C7.84516 -0.683418 11.8852 -0.301083 16.0058 2.13826L28.5574 9.55633C32.6829 11.9986 35 15.3828 35 19.0004C35 22.618 32.6827 26.0022 28.5572 28.4445L16.0055 35.8627C16.0056 35.8626 16.0054 35.8627 16.0055 35.8627M15.4963 2.99878C11.5618 0.669597 7.93069 0.428382 5.26841 2.00658C2.60804 3.58364 1 6.92761 1 11.5823V26.4185C1 31.0732 2.60804 34.4171 5.26841 35.9942C7.93063 37.5724 11.5617 37.3312 15.4961 35.0022L28.0478 27.584C31.9831 25.2543 34 22.1497 34 19.0004C34 15.8511 31.9837 12.7469 28.0486 10.4172" fill="#BF0606"/>
<path fill-rule="evenodd" clip-rule="evenodd" d="M235.013 2.07645C237.888 0.372459 241.724 0.684234 245.751 3.06849L258.303 10.4868C262.333 12.8728 264.5 16.117 264.5 19.5004C264.5 22.8838 262.333 26.1283 258.303 28.5143L245.751 35.9324C241.723 38.3165 237.888 38.6283 235.013 36.9243C232.146 35.2244 230.5 31.6741 230.5 26.9185V12.0823C230.5 7.32663 232.146 3.77639 235.013 2.07645Z" fill="#E3223B"/>
<path fill-rule="evenodd" clip-rule="evenodd" d="M234.758 1.64637C237.845 -0.183418 241.885 0.198917 246.006 2.63826L258.557 10.0563C262.683 12.4986 265 15.8828 265 19.5004C265 23.118 262.683 26.5022 258.557 28.9445L246.005 36.3627M245.496 3.49878C241.562 1.1696 237.931 0.928382 235.268 2.50658C232.608 4.08364 231 7.42761 231 12.0823V26.9185C231 31.5732 232.608 34.9171 235.268 36.4942C237.931 38.0724 241.562 37.8312 245.496 35.5022L258.048 28.084C261.983 25.7543 264 22.6497 264 19.5004C264 16.3511 261.984 13.2469 258.049 10.9172" fill="#E3223B"/>
<path fill-rule="evenodd" clip-rule="evenodd" d="M465.013 2.07645C467.888 0.372459 471.724 0.684234 475.751 3.06849L488.303 10.4868C492.333 12.8728 494.5 16.117 494.5 19.5004C494.5 22.8838 492.333 26.1283 488.303 28.5143L475.751 35.9324C471.723 38.3165 467.888 38.6283 465.013 36.9243C462.146 35.2244 460.5 31.6741 460.5 26.9185V12.0823C460.5 7.32663 462.146 3.77639 465.013 2.07645Z" fill="#FF5931"/>
<path fill-rule="evenodd" clip-rule="evenodd" d="M464.758 1.64637C467.845 -0.183418 471.885 0.198917 476.006 2.63826L488.557 10.0563C492.683 12.4986 495 15.8828 495 19.5004C495 23.118 492.683 26.5022 488.557 28.9445L476.005 36.3627M475.496 3.49878C471.562 1.1696 467.931 0.928382 465.268 2.50658C462.608 4.08364 461 7.42761 461 12.0823V26.9185C461 31.5732 462.608 34.9171 465.268 36.4942C467.931 38.0724 471.562 37.8312 475.496 35.5022L488.048 28.084C491.983 25.7543 494 22.6497 494 19.5004C494 16.3511 491.984 13.2469 488.049 10.9172" fill="#FF5931"/>
<path fill-rule="evenodd" clip-rule="evenodd" d="M695.013 2.07645C697.888 0.372459 701.724 0.684234 705.751 3.06849L718.303 10.4868C722.333 12.8728 724.5 16.117 724.5 19.5004C724.5 22.8838 722.333 26.1283 718.303 28.5143L705.751 35.9324C701.723 38.3165 697.888 38.6283 695.013 36.9243C692.146 35.2244 690.5 31.6741 690.5 26.9185V12.0823C690.5 7.32663 692.146 3.77639 695.013 2.07645Z" fill="#F2A950"/>
<path fill-rule="evenodd" clip-rule="evenodd" d="M694.758 1.64637C697.845 -0.183418 701.885 0.198917 706.006 2.63826L718.557 10.0563C722.683 12.4986 725 15.8828 725 19.5004C725 23.118 722.683 26.5022 718.557 28.9445L706.005 36.3627C706.006 36.3626 706.005 36.3628 706.005 36.3627M705.496 3.49878C701.562 1.1696 697.931 0.928382 695.268 2.50658C692.608 4.08365 691 7.42761 691 12.0823V26.9185C691 31.5732 692.608 34.9171 695.268 36.4942C697.931 38.0724 701.562 37.8312 705.496 35.5022L718.048 28.084C721.983 25.7543 724 22.6497 724 19.5004C724 16.3511 721.984 13.2469 718.049 10.9172" fill="#F2A950"/>
<path fill-rule="evenodd" clip-rule="evenodd" d="M719.987 198.076C717.112 196.372 713.276 196.684 709.249 199.069L696.697 206.487C692.667 208.873 690.5 212.117 690.5 215.5C690.5 218.884 692.667 222.128 696.697 224.514L709.249 231.932C713.277 234.317 717.112 234.628 719.987 232.924C722.854 231.224 724.5 227.674 724.5 222.919V208.082C724.5 203.327 722.854 199.776 719.987 198.076Z" fill="#753FBF"/>
<path fill-rule="evenodd" clip-rule="evenodd" d="M720.242 197.646C717.155 195.817 713.115 196.199 708.994 198.638L696.443 206.056C692.317 208.499 690 211.883 690 215.5C690 219.118 692.317 222.502 696.443 224.945L708.995 232.363M709.504 199.499C713.438 197.17 717.069 196.928 719.732 198.507C722.392 200.084 724 203.428 724 208.082V222.919C724 227.573 722.392 230.917 719.732 232.494C717.069 234.072 713.438 233.831 709.504 231.502L696.952 224.084C693.017 221.754 691 218.65 691 215.5C691 212.351 693.016 209.247 696.951 206.917" fill="#753FBF"/>
<path fill-rule="evenodd" clip-rule="evenodd" d="M29.9866 198.076C27.1121 196.372 23.2765 196.684 19.2489 199.069L6.69703 206.487C2.66661 208.873 0.5 212.117 0.5 215.5C0.5 218.884 2.66708 222.128 6.6975 224.514L19.2492 231.932C23.2767 234.317 27.1121 234.628 29.9866 232.924C32.8542 231.224 34.5 227.674 34.5 222.919V208.082C34.5 203.327 32.8542 199.776 29.9866 198.076Z" fill="#0583F2"/>
<path fill-rule="evenodd" clip-rule="evenodd" d="M30.2415 197.646C27.1548 195.817 23.1148 196.199 18.9942 198.638L6.44263 206.056C2.31712 208.499 0 211.883 0 215.5C0 219.118 2.3173 222.502 6.44279 224.945L18.9945 232.363C18.9946 232.363 18.9944 232.363 18.9945 232.363M19.5037 199.499C23.4382 197.17 27.0693 196.928 29.7316 198.507C32.392 200.084 34 203.428 34 208.082V222.919C34 227.573 32.392 230.917 29.7316 232.494C27.0694 234.072 23.4383 233.831 19.5039 231.502L6.95221 224.084C3.01687 221.754 1 218.65 1 215.5C1 212.351 3.01632 209.247 6.95142 206.917" fill="#0583F2"/>
<path fill-rule="evenodd" clip-rule="evenodd" d="M259.987 198.076C257.112 196.372 253.276 196.684 249.249 199.069L236.697 206.487C232.667 208.873 230.5 212.117 230.5 215.5C230.5 218.884 232.667 222.128 236.697 224.514L249.249 231.932C253.277 234.317 257.112 234.628 259.987 232.924C262.854 231.224 264.5 227.674 264.5 222.919V208.082C264.5 203.327 262.854 199.776 259.987 198.076Z" fill="#2496FA"/>
<path fill-rule="evenodd" clip-rule="evenodd" d="M260.242 197.646C257.155 195.817 253.115 196.199 248.994 198.638L236.443 206.056C232.317 208.499 230 211.883 230 215.5C230 219.118 232.317 222.502 236.443 224.945L248.995 232.363M249.504 199.499C253.438 197.17 257.069 196.928 259.732 198.507C262.392 200.084 264 203.428 264 208.082V222.919C264 227.573 262.392 230.917 259.732 232.494C257.069 234.072 253.438 233.831 249.504 231.502L236.952 224.084C233.017 221.754 231 218.65 231 215.5C231 212.351 233.016 209.247 236.951 206.917" fill="#2496FA"/>
<path fill-rule="evenodd" clip-rule="evenodd" d="M489.987 198.076C487.112 196.372 483.276 196.684 479.249 199.069L466.697 206.487C462.667 208.873 460.5 212.117 460.5 215.5C460.5 218.884 462.667 222.128 466.697 224.514L479.249 231.932C483.277 234.317 487.112 234.628 489.987 232.924C492.854 231.224 494.5 227.674 494.5 222.919V208.082C494.5 203.327 492.854 199.776 489.987 198.076Z" fill="#8448D9"/>
<path fill-rule="evenodd" clip-rule="evenodd" d="M490.242 197.646C487.155 195.817 483.115 196.199 478.994 198.638L466.443 206.056C462.317 208.499 460 211.883 460 215.5C460 219.118 462.317 222.502 466.443 224.945L478.995 232.363M479.504 199.499C483.438 197.17 487.069 196.928 489.732 198.507C492.392 200.084 494 203.428 494 208.082V222.919C494 227.573 492.392 230.917 489.732 232.494C487.069 234.072 483.438 233.831 479.504 231.502L466.952 224.084C463.017 221.754 461 218.65 461 215.5C461 212.351 463.016 209.247 466.951 206.917" fill="#8448D9"/>
</g>
<defs>
<linearGradient id="paint0_linear_110_77" x1="2" y1="20" x2="990" y2="108.5" gradientUnits="userSpaceOnUse">
<stop stop-color="#BF0606"/>
<stop offset="0.265" stop-color="#E3223B"/>
<stop offset="0.535" stop-color="#FF5931"/>
<stop offset="0.75" stop-color="#F2A950"/>
</linearGradient>
<linearGradient id="paint1_linear_110_77" x1="2.49999" y1="216.5" x2="990.5" y2="109" gradientUnits="userSpaceOnUse">
<stop offset="0.0232575" stop-color="#056CF2"/>
<stop offset="0.261349" stop-color="#0583F2"/>
<stop offset="0.468075" stop-color="#8448D9"/>
<stop offset="0.881212" stop-color="#753FBF"/>
<stop offset="1" stop-color="#F2A950"/>
</linearGradient>
<clipPath id="clip0_110_77">
<rect width="994" height="234" fill="white"/>
</clipPath>
</defs>
</svg>
